<?xml version="1.0" encoding="UTF-8" standalone="no"?>
<svg
   id="Layer_1"
   version="1.1"
   viewBox="0 0 24 24"
   sodipodi:docname="audio_track_24dp_FFFFFF_FILL0_wght200_GRAD0_opsz24.svg"
   inkscape:version="1.4 (e7c3feb100, 2024-10-09)"
   xmlns:inkscape="http://www.inkscape.org/namespaces/inkscape"
   xmlns:sodipodi="http://sodipodi.sourceforge.net/DTD/sodipodi-0.dtd"
   xmlns="http://www.w3.org/2000/svg"
   xmlns:svg="http://www.w3.org/2000/svg">
  <sodipodi:namedview
     id="namedview4"
     pagecolor="#505050"
     bordercolor="#ffffff"
     borderopacity="1"
     inkscape:showpageshadow="0"
     inkscape:pageopacity="0"
     inkscape:pagecheckerboard="1"
     inkscape:deskcolor="#505050"
     inkscape:zoom="31.208333"
     inkscape:cx="6.9532711"
     inkscape:cy="13.377837"
     inkscape:window-width="1920"
     inkscape:window-height="958"
     inkscape:window-x="0"
     inkscape:window-y="27"
     inkscape:window-maximized="1"
     inkscape:current-layer="Layer_1" />
  <!-- Generator: Adobe Illustrator 30.1.0, SVG Export Plug-In . SVG Version: 2.1.1 Build 136)  -->
  <defs
     id="defs1">
    <style
       id="style1">
      .st0 {
        stroke-width: .5px;
      }

      .st0, .st1, .st2 {
        fill: #fff;
      }

      .st0, .st2 {
        stroke: #fff;
        stroke-miterlimit: 10;
      }

      .st3 {
        fill: #424242;
      }

      .st2 {
        stroke-width: .25px;
      }
    </style>
  </defs>
  <g
     id="Layer_2" />
  <g
     id="Layer_11">
    <path
       class="st1"
       d="M3.5,15.5v-1h7v1H3.5ZM3.5,11.5v-1h11v1H3.5ZM3.5,7.5v-1h11v1H3.5Z"
       id="path1" />
    <path
       class="st2"
       d="M12,14.46h2.14l2.24-2.24v6.96l-2.24-2.24h-2.14v-2.48ZM15.74,13.74l-1.34,1.34h-1.78v1.25h1.78l1.34,1.34v-3.93h0Z"
       id="path2" />
  </g>
  <path
     class="st0"
     d="m 18.340793,21.352142 v -0.739758 c 1.100135,-0.341427 1.972658,-0.944615 2.642856,-1.775421 0.670197,-0.830805 1.011619,-1.775422 1.011619,-2.822464 0,-1.047044 -0.341422,-1.980277 -1.011619,-2.822464 -0.670198,-0.830806 -1.542721,-1.433995 -2.642856,-1.775421 v -0.73976 c 1.302459,0.375569 2.36466,1.058425 3.186602,2.037183 0.821939,0.978758 1.226587,2.082704 1.226587,3.311843 0,1.229137 -0.404648,2.333083 -1.226587,3.311841 -0.821942,0.978758 -1.884143,1.661613 -3.186602,2.037183 z"
     id="path3"
     style="stroke-width:0.111511;stroke-dasharray:none" />
  <path
     class="st0"
     d="m 18.263348,13.867187 c 0.39063,0.228824 0.691973,0.527289 0.90403,0.895397 0.212056,0.368108 0.312504,0.766062 0.312504,1.173965 0,0.407903 -0.100448,0.805858 -0.312504,1.173965 -0.212057,0.358159 -0.502239,0.656625 -0.892869,0.885449 z"
     id="path4"
     sodipodi:nodetypes="cssccc"
     style="stroke-width:0.316123;stroke-dasharray:none" />
  <path
     style="fill:#ffffff;stroke-width:0.00320427"
     d="m 15.028037,16.742323 -0.56006,-0.560747 H 13.61049 12.753004 v -0.480641 -0.480641 h 0.856818 0.856818 l 0.569083,-0.568425 0.569083,-0.568424 v 1.609813 c 0,0.885397 -0.0038,1.609813 -0.0084,1.609813 -0.0046,0 -0.260381,-0.252337 -0.568415,-0.560748 z"
     id="path5" />
</svg>
