<?xml version="1.0" encoding="UTF-8"?>
<svg id="Layer_1" xmlns="http://www.w3.org/2000/svg" version="1.1" viewBox="0 0 24 24">
  <!-- Generator: Adobe Illustrator 30.1.0, SVG Export Plug-In . SVG Version: 2.1.1 Build 136)  -->
  <defs>
    <style>
      .st0 {
        fill: #fff;
      }
    </style>
  </defs>
  <path class="st0" d="M2.56,15.88v-1.5h7.51v1.5H2.56ZM2.56,11.88v-1.5h11.48v1.5H2.56ZM2.56,7.88v-1.5h11.48v1.5H2.56Z"/>
  <path class="st0" d="M18.42,21.09v-.99c.92-.29,1.67-.83,2.23-1.6.56-.77.85-1.65.85-2.62,0-.97-.28-1.84-.85-2.62-.56-.77-1.31-1.31-2.23-1.6v-.99c1.19.32,2.16.96,2.91,1.92.75.96,1.13,2.06,1.13,3.29,0,1.23-.38,2.33-1.13,3.29-.75.96-1.72,1.6-2.91,1.92ZM11.77,17.5v-3.2h2.38l2.75-2.75v8.69l-2.75-2.75h-2.38ZM18.42,18.24v-4.71c.43.23.77.57,1,.99.24.43.35.89.35,1.38s-.12.94-.36,1.36c-.24.42-.57.75-1,.98ZM15.93,13.88l-1.38,1.38h-1.83v1.28h1.83l1.38,1.38v-4.03Z"/>
</svg>