<?xml version="1.0" encoding="UTF-8"?>
<svg id="base" xmlns="http://www.w3.org/2000/svg" viewBox="0 0 2314.6 586.8">
  <defs>
    <style>
      .cls-1 {
        fill: #ff0069;
      }
    </style>
  </defs>
  <path class="cls-1" d="M207.6,586.8c-39.06,0-74.37-8.8-105.9-26.4-31.53-17.6-56.36-41.7-74.5-72.3C9.07,457.5,0,423.27,0,385.4s9.1-72.8,27.3-103.2c18.2-30.4,43.1-54.43,74.7-72.1,30.01-16.78,63.44-25.59,100.3-26.43.92-.05,1.85-.08,2.79-.08s1.88,0,2.81.01h.35c15.47,0,30.34,1.45,44.61,4.35,14.85,2.94,28.99,7.44,42.63,13.76,22.79,10.34,42.87,24.72,60.25,43.14.44.49.88.97,1.3,1.45.53.56,1.05,1.13,1.56,1.7v.02c12.49,14,16.09,19.56,22.86,28.28,2.93-5.06,6.04-9.93,9.32-14.62,13.42-19.55,27.83-33.92,47.95-47.42,1.83-1.25,3.69-2.47,5.57-3.66,28.07-17.73,59.7-26.6,94.9-26.6h.05c27.73,0,52.53,5.67,74.4,17,14.46,7.5,27.05,16.86,37.75,28.1v-37.1h104.25v386.4h-104.25v-36.64c-10.57,11.03-23.05,20.25-37.45,27.64-16.21,8.32-33.94,13.59-53.2,15.8-2.85.52-5.79.79-8.79.79-4.17.27-8.41.41-12.71.41h-.67c-21.23-.06-41.31-2.94-59.79-9.82-12.04-4.19-23.54-9.72-34.49-16.59-12.12-7.6-23.14-16.39-33.04-26.35-64.09-63.98-71.51-163.53-120.44-217.27l-.02.02c-.28-.32-.56-.64-.84-.95-5.89-6.34-12.38-12.03-19.63-16.91-4.95-3.22-10.18-5.97-15.63-8.23-13.92-5.79-29.4-8.7-46.45-8.7h-.05c-19.58,0-36.97,4.41-52.15,13.2-15.2,8.8-27.1,20.87-35.7,36.2-8.6,15.33-12.9,33.33-12.9,54s4.3,38.2,12.9,53.8,20.53,27.83,35.8,36.7c15.25,8.86,32.6,13.29,52.05,13.3h.05c.33,0,.67,0,1,0,10.83-.08,21.36-1.43,30.89-3.85,5.96-1.54,11.78-3.59,17.38-6.14,11.31-5.27,22.06-12.64,32.85-24.36.48-.54.96-1.09,1.43-1.65l.03.03c2.75-3.09,5.52-6.48,8.29-10.19,1.98,4.9,3.99,9.82,6.06,14.73,11.24,26.66,24.12,52.99,40.93,77.11-1.7,1.44-3.41,2.86-5.15,4.25-10.4,9.4-25.94,20.41-46.73,29.86-1.03.48-2.06.95-3.08,1.4-25.67,11.2-53.84,16.8-84.5,16.8h-.05M558.8,489.6h.05c29.31-.01,52.96-9.78,70.95-29.3,18-19.53,27-44.57,27-75.1,0-20.53-4.07-38.63-12.2-54.3-8.13-15.67-19.53-27.93-34.2-36.8-14.65-8.86-31.77-13.29-51.35-13.3h-.05c-19.18,0-36.1,4.44-50.75,13.3-14.67,8.87-26.24,21.17-34.7,36.9-8.47,15.73-12.7,33.8-12.7,54.2s4.2,38.47,12.6,54.2c8.4,15.73,19.96,28.03,34.7,36.9,12.65,7.62,26.91,11.96,42.76,13.03,1.51,0,3,.07,4.47.22,1.14.03,2.27.05,3.42.05M919.8,543.55v34.85h-104.2V0h105.2v225.28c10.1-9.55,21.7-17.64,34.8-24.28,22.4-11.33,47.34-17,74.8-17,35.74,0,67.74,8.87,96,26.6,28.27,17.73,50.54,41.77,66.8,72.1,16.27,30.33,24.4,64.7,24.4,103.1s-8.13,72.13-24.4,102.4c-16.26,30.27-38.53,54.2-66.8,71.8-28.26,17.6-60.26,26.4-96,26.4-27.86,0-53-5.83-75.4-17.5-13.32-6.94-25.06-15.39-35.2-25.35M1012.4,489.6c19.2,0,36.14-4.43,50.8-13.3,14.67-8.87,26.2-21.17,34.6-36.9,8.4-15.73,12.6-33.8,12.6-54.2s-4.2-38.47-12.6-54.2c-8.4-15.73-19.97-28.03-34.7-36.9-14.73-8.87-31.7-13.3-50.9-13.3s-36.23,4.43-51.1,13.3c-14.87,8.87-26.37,21.13-34.5,36.8-8.13,15.67-12.2,33.77-12.2,54.3s4.1,38.67,12.3,54.4c8.2,15.73,19.74,28,34.6,36.8,14.87,8.8,31.9,13.2,51.1,13.2M1358.8,357v221.4h-105.2V192h105.2v36.47c9.59-9.83,20.63-18.22,33.14-25.16,23.16-12.87,49.39-19.3,78.7-19.3s53.93,7.07,76.26,21.2c22.33,14.13,39.9,32.6,52.7,55.4,12.8,22.8,19.2,47.13,19.2,73v244.8h-105.2v-221.4c0-23.07-7.2-41.83-21.6-56.3-14.4-14.47-32.81-21.7-55.25-21.7-15.27,0-28.77,3.27-40.52,9.8-11.75,6.53-20.93,15.7-27.53,27.5s-9.9,25.37-9.9,40.7M1751.09,422.12c2.14,8.04,5.01,15.56,8.61,22.58,8.87,17.27,21.5,30.53,37.9,39.8,16.4,9.27,35.6,13.9,57.6,13.9,19.47,0,37.27-3.37,53.4-10.1,16.13-6.73,30.07-16.77,41.8-30.1l61.6,62c-18.93,22-41.86,38.6-68.8,49.8-26.93,11.2-56.06,16.8-87.4,16.8-40.26,0-76.23-8.67-107.9-26-31.67-17.33-56.63-41.3-74.9-71.9-18.27-30.6-27.4-65.17-27.4-103.7s8.97-72.77,26.9-103.1c17.94-30.33,42.34-54.33,73.2-72,30.87-17.67,65.3-26.5,103.3-26.5s69.84,8.3,98.3,24.9c28.47,16.6,50.84,39.43,67.1,68.5,16.27,29.07,24.4,62.2,24.4,99.4,0,6.8-.4,13.8-1.2,21s-2.13,15.27-4,24.2l-282.51.52M1751.18,344.11l187.09-.41c-2.01-9.38-4.8-17.84-8.37-25.4-7.26-15.4-17.67-27.17-31.2-35.3-13.53-8.13-30.23-12.2-50.1-12.2s-38.87,4.6-54.2,13.8c-15.33,9.2-27.17,22.17-35.5,38.9-3.18,6.39-5.75,13.26-7.72,20.61M2119.4,284h-90v-92h90V31.6h105.2v160.4h90v92h-90v294.4h-105.2v-294.4h0Z"/>
</svg>