<?xml version="1.0" encoding="UTF-8"?>
<svg xmlns="http://www.w3.org/2000/svg" version="1.1" viewBox="0 0 2388.18 626.87">
  <!-- Generator: Adobe Illustrator 30.1.0, SVG Export Plug-In . SVG Version: 2.1.1 Build 136)  -->
  <defs>
    <style>
      .st0 {
        fill: #fff;
      }

      .st1 {
        display: none;
      }

      .st2 {
        fill: #ff0069;
      }
    </style>
  </defs>
  <g id="Layer_2" class="st1">
    <rect x="-1938.46" y="-1333.67" width="6905.67" height="3525.63"/>
  </g>
  <g id="base">
    <g>
      <path class="st0" d="M225.97,612.53c-39.82,0-75.81-8.97-107.95-26.91-32.14-17.94-57.45-42.51-75.94-73.7-18.48-31.19-27.73-66.09-27.73-104.69s9.28-74.21,27.83-105.2c18.55-30.99,43.94-55.49,76.15-73.5,30.59-17.11,64.67-26.09,102.24-26.94.94-.05,1.89-.08,2.84-.08h3.22c15.77,0,30.93,1.48,45.48,4.43,15.14,3,29.55,7.58,43.46,14.03,23.23,10.54,43.7,25.2,61.42,43.98.45.5.9.99,1.33,1.48.54.57,1.07,1.15,1.59,1.73v.02c12.73,14.27,16.4,19.94,23.3,28.83,2.99-5.16,6.16-10.12,9.5-14.9,13.68-19.93,28.37-34.58,48.88-48.34,1.87-1.27,3.76-2.52,5.68-3.73,28.61-18.07,60.86-27.12,96.74-27.12h.05c28.27,0,53.55,5.78,75.84,17.33,14.74,7.65,27.57,17.19,38.48,28.64v-37.82h106.27v393.89h-106.27v-37.35c-10.77,11.24-23.5,20.64-38.18,28.18-16.52,8.48-34.6,13.85-54.23,16.11-2.91.53-5.9.81-8.96.81-4.25.28-8.57.42-12.96.42h-.68c-21.64-.06-42.11-3-60.95-10.01-12.27-4.27-24-9.91-35.16-16.91-12.36-7.75-23.59-16.71-33.68-26.86-65.33-65.22-72.9-166.7-122.78-221.48,0,0-.59-.63-.88-.95-6-6.46-12.62-12.26-20.01-17.24-5.05-3.28-10.38-6.09-15.93-8.39-14.19-5.9-29.97-8.87-47.35-8.87h-.05c-19.96,0-37.69,4.5-53.16,13.46-15.49,8.97-27.63,21.27-36.39,36.9-8.77,15.63-13.15,33.98-13.15,55.05s4.38,38.94,13.15,54.84c8.77,15.9,20.93,28.37,36.49,37.41,15.55,9.03,33.23,13.55,53.06,13.56h1.07c11.04-.08,21.77-1.46,31.49-3.92,6.08-1.57,12.01-3.66,17.72-6.26,11.53-5.37,22.49-12.89,33.49-24.83.49-.55.98-1.11,1.46-1.68,0,0,5.66-6.58,8.48-10.36,2.02,5,4.07,10.01,6.18,15.02,11.46,27.18,24.59,54.02,41.72,78.61-1.73,1.47-3.48,2.92-5.25,4.33-10.6,9.58-26.44,20.81-47.64,30.44-1.05.49-2.1.97-3.14,1.43-26.17,11.42-54.88,17.13-86.14,17.13h-.05M583.98,513.44h.05c29.88-.01,53.99-9.97,72.33-29.87,18.35-19.91,27.52-45.43,27.52-76.56,0-20.93-4.15-39.38-12.44-55.35-8.29-15.97-19.91-28.47-34.86-37.51-14.93-9.03-32.39-13.55-52.35-13.56h-.05c-19.55,0-36.8,4.53-51.73,13.56-14.95,9.04-26.75,21.58-35.37,37.62-8.63,16.04-12.95,34.46-12.95,55.25s4.28,39.22,12.84,55.25,20.35,28.57,35.37,37.62c12.9,7.77,27.43,12.19,43.59,13.28,1.54,0,3.06.07,4.56.22,1.16.03,2.31.05,3.49.05M951.98,568.44v35.53h-106.22V14.35h107.24v229.65c10.3-9.74,22.12-17.98,35.47-24.75,22.83-11.55,48.26-17.33,76.25-17.33,36.43,0,69.05,9.04,97.86,27.12,28.82,18.07,51.52,42.58,68.1,73.5,16.59,30.92,24.87,65.95,24.87,105.1s-8.29,73.53-24.87,104.39c-16.58,30.86-39.28,55.25-68.1,73.19-28.81,17.94-61.43,26.91-97.86,26.91-28.4,0-54.03-5.94-76.86-17.84-13.58-7.07-25.55-15.69-35.88-25.84h0ZM1046.38,513.44c19.57,0,36.84-4.52,51.79-13.56,14.95-9.04,26.71-21.58,35.27-37.62,8.56-16.04,12.84-34.46,12.84-55.25s-4.28-39.22-12.84-55.25c-8.56-16.04-20.36-28.57-35.37-37.62-15.02-9.04-32.31-13.56-51.89-13.56s-36.93,4.52-52.09,13.56c-15.16,9.04-26.88,21.54-35.17,37.51-8.29,15.97-12.44,34.42-12.44,55.35s4.18,39.42,12.54,55.45c8.36,16.04,20.12,28.54,35.27,37.51,15.16,8.97,32.52,13.46,52.09,13.46M1399.5,378.27v225.69h-107.24V210.07h107.24v37.18c9.78-10.02,21.03-18.57,33.78-25.65,23.61-13.12,50.35-19.67,80.23-19.67s54.98,7.21,77.74,21.61c22.76,14.4,40.67,33.23,53.72,56.47,13.05,23.24,19.57,48.04,19.57,74.42v249.55h-107.24v-225.69c0-23.52-7.34-42.64-22.02-57.39-14.68-14.75-33.45-22.12-56.32-22.12-15.57,0-29.33,3.33-41.31,9.99-11.98,6.66-21.34,16-28.06,28.03-6.73,12.03-10.09,25.86-10.09,41.49M1799.39,444.65c2.18,8.2,5.11,15.86,8.78,23.02,9.04,17.6,21.92,31.12,38.63,40.57,16.72,9.45,36.29,14.17,58.72,14.17,19.85,0,37.99-3.44,54.44-10.3,16.44-6.86,30.65-17.1,42.61-30.68l62.79,63.2c-19.3,22.43-42.67,39.35-70.13,50.77-27.45,11.42-57.15,17.13-89.09,17.13-41.04,0-77.71-8.84-109.99-26.5-32.28-17.67-57.73-42.1-76.35-73.29-18.62-31.19-27.93-66.43-27.93-105.71s9.14-74.18,27.42-105.1c18.29-30.92,43.16-55.38,74.62-73.4,31.47-18.01,66.57-27.01,105.3-27.01s71.19,8.46,100.21,25.38c29.02,16.92,51.83,40.19,68.4,69.83,16.59,29.63,24.87,63.41,24.87,101.33,0,6.93-.41,14.07-1.22,21.41-.82,7.34-2.17,15.57-4.08,24.67l-287.99.53h0ZM1799.48,365.13l190.72-.42c-2.05-9.56-4.89-18.19-8.53-25.89-7.4-15.7-18.01-27.7-31.8-35.98-13.79-8.29-30.82-12.44-51.07-12.44s-39.62,4.69-55.25,14.07c-15.63,9.38-27.7,22.6-36.19,39.65-3.24,6.51-5.86,13.52-7.87,21.01h0ZM2174.84,303.85h-91.75v-93.78h91.75V46.56h107.24v163.51h91.75v93.78h-91.75v300.11h-107.24v-300.11h0Z"/>
      <path class="st2" d="M1906.13,626.87c-43.28,0-82.6-9.51-116.88-28.27-34.39-18.82-61.91-45.24-81.78-78.52-15.64-26.19-25.21-55.31-28.58-86.86v185.09h-135.94v-240.04c0-19.75-5.84-35.21-17.84-47.27-11.98-12.04-27.08-17.89-46.15-17.89-13.2,0-24.43,2.68-34.34,8.18-9.69,5.39-17.06,12.75-22.51,22.5-5.49,9.81-8.27,21.41-8.27,34.49v240.03h-135.93V195.72h135.93v20.98c4.02-2.72,8.18-5.27,12.47-7.65,25.64-14.25,54.98-21.48,87.19-21.48s60.06,7.8,85.41,23.83c24.69,15.63,44.39,36.34,58.56,61.58,14.21,25.3,21.41,52.7,21.41,81.44v26.17c1.2-11.33,3.19-22.33,5.95-32.89,4.88-18.68,12.31-36.54,22.1-53.09,19.48-32.94,46.35-59.37,79.84-78.55,33.51-19.18,71.34-28.91,112.43-28.91s75.9,8.94,107.43,27.34c24.87,14.5,45.69,33.56,62.12,56.83v-75.6h91.75V32.21h135.93v163.51h91.75v122.48h-91.75v300.11h-135.93v-300.11h-67.05c9.02,24.45,13.58,51.19,13.58,79.84,0,7.43-.44,15.16-1.31,22.99-.87,7.8-2.31,16.55-4.29,26.03l-2.38,11.38-279.18.51c.35.73.71,1.45,1.07,2.16,7.8,15.18,18.57,26.51,32.93,34.63,14.45,8.17,31.83,12.31,51.66,12.31,17.84,0,34.3-3.09,48.91-9.19,14.34-5.98,26.91-15.04,37.36-26.92l10.14-11.52,82.96,83.5-8.65,10.06c-20.68,24.04-46.09,42.43-75.5,54.66-29.08,12.09-60.91,18.23-94.6,18.23ZM1899.2,215.86c-36.03,0-69.06,8.45-98.18,25.12-29.13,16.68-52.48,39.64-69.4,68.25-17.11,28.94-25.42,60.93-25.42,97.8s8.71,69.57,25.9,98.36c17.21,28.83,41.08,51.73,70.92,68.06,30,16.42,64.69,24.74,103.11,24.74,29.89,0,58.02-5.39,83.59-16.03,21.12-8.78,39.83-21.26,55.76-37.17l-42.89-43.17c-10.97,9.93-23.41,17.82-37.11,23.54-18.13,7.57-38.31,11.4-59.96,11.4-24.83,0-46.96-5.39-65.78-16.03-19.12-10.81-34.04-26.46-44.34-46.51-4.13-8.05-7.45-16.75-9.88-25.88l-4.79-18,294.77-.54c.72-4.23,1.28-8.22,1.69-11.93.75-6.78,1.14-13.45,1.14-19.82,0-35.26-7.75-67-23.05-94.32-15.23-27.22-36.46-48.9-63.11-64.44-27.03-15.77-57.44-23.43-92.98-23.43ZM1571.64,589.63h78.55v-235.2c0-23.76-5.97-46.43-17.74-67.39-11.81-21.04-28.26-38.32-48.88-51.37-20.9-13.23-43.17-19.39-70.07-19.39s-51.92,6.01-73.26,17.87c-11.46,6.36-21.71,14.14-30.48,23.13l-24.62,25.23v-58.08h-78.54v365.2h78.54v-211.35c0-18.04,4.01-34.35,11.92-48.48,8.02-14.34,19.33-25.63,33.62-33.57,14.08-7.83,30.33-11.8,48.28-11.8,26.72,0,49.09,8.86,66.49,26.35,17.38,17.47,26.2,40.18,26.2,67.51v211.35ZM2189.19,589.62h78.54v-300.11h91.75v-65.09h-91.75V60.91h-78.54v163.51h-91.75v65.09h91.75v300.11ZM225.97,626.87c-42.12,0-80.79-9.67-114.95-28.73-34.23-19.1-61.58-45.66-81.29-78.91C10,485.93,0,448.24,0,407.22s10.05-79.47,29.87-112.57c19.77-33.02,47.17-59.48,81.46-78.65,32.45-18.15,69.03-27.82,108.7-28.76,1.19-.06,2.3-.09,3.39-.09h3.22c16.63,0,32.88,1.58,48.28,4.71,16.59,3.29,31.84,8.21,46.61,15.05,24.81,11.26,46.98,27.13,65.89,47.18l.63.69c.29.33.58.65.87.97.53.57,1.08,1.17,1.68,1.84l3.65,4.08v.07c3.15,3.61,5.71,6.67,7.9,9.39,14.41-20.57,30.35-36.14,51.41-50.28,1.93-1.32,3.96-2.65,6.02-3.96,30.83-19.47,65.95-29.34,104.41-29.34h.05c30.45,0,58.19,6.37,82.44,18.94,6.13,3.18,11.98,6.68,17.53,10.48v-21.27h134.97v422.59h-134.97v-20.98c-5.48,3.71-11.24,7.12-17.28,10.22-17.87,9.17-37.62,15.07-58.7,17.54-3.46.6-7.01.92-10.56.95-4.45.28-8.97.42-13.44.42h-.72c-24.76-.07-46.27-3.62-65.76-10.86-13.19-4.6-25.95-10.75-37.93-18.26-13.22-8.29-25.4-18.01-36.22-28.89-16.88-16.86-31.58-37.42-44.93-62.85-11.56-22.01-20.68-44.78-29.5-66.8-14.23-35.53-27.68-69.08-48.73-92.24-.17-.19-.61-.65-.89-.96-5.48-5.89-11.16-10.79-17.35-14.97-4.26-2.76-8.8-5.15-13.52-7.11-12.41-5.16-26.48-7.77-41.85-7.77h-.05c-17.3,0-32.77,3.88-45.97,11.52-13.35,7.73-23.51,18.03-31.07,31.51-7.51,13.38-11.32,29.54-11.32,48.03s3.72,34.04,11.37,47.92c7.56,13.71,17.74,24.15,31.14,31.93,13.44,7.81,28.44,11.61,45.86,11.62h1c9.64-.07,19.32-1.28,28-3.48,5.25-1.36,10.39-3.17,15.27-5.39,10.88-5.08,20.05-11.89,28.85-21.42.43-.48.79-.9,1.11-1.28l.11-.13c1.49-1.73,5.79-6.81,7.86-9.58l15.25-20.42,9.55,23.63c2.42,5.99,4.3,10.56,6.1,14.82,13.24,31.41,26.04,55.55,40.27,75.98l7.47,10.71-9.96,8.44c-1.91,1.62-3.63,3.04-5.23,4.32-9.72,8.73-26.36,21.36-50.95,32.54-1.21.56-2.3,1.06-3.33,1.51l-.05.02c-27.87,12.16-58.78,18.32-91.88,18.32h-.05v.02ZM223.41,215.85c-.64,0-1.32.02-2.07.06l-.45.02c-35.03.8-67.19,9.25-95.57,25.12-29.85,16.69-53.68,39.69-70.84,68.35-17.11,28.59-25.79,61.5-25.79,97.83s8.65,68.57,25.72,97.38c17.1,28.84,40.85,51.88,70.59,68.49,29.83,16.65,63.8,25.09,100.96,25.09v-.02h.05c29.11,0,56.14-5.35,80.36-15.91.87-.38,1.8-.81,2.86-1.3l.12-.06c18.24-8.29,31.26-17.35,39.78-24.41-11.58-18.16-22.34-38.91-33.21-64.02-10,9.83-20.63,17.21-33.02,22.98l-.11.05c-6.42,2.92-13.17,5.31-20.07,7.09h-.06c-11.06,2.82-22.8,4.29-34.91,4.38h-1.18c-22.31-.01-42.58-5.23-60.27-15.5-17.77-10.32-31.85-24.75-41.85-42.89-10.05-18.23-14.93-38.43-14.93-61.77s5.04-44.34,14.98-62.07c10-17.83,24.04-32.07,41.72-42.3,17.63-10.21,37.94-15.39,60.35-15.39h.05c19.17,0,36.96,3.35,52.86,9.97,6.35,2.63,12.5,5.87,18.25,9.61l.19.12c7.99,5.38,15.56,11.9,22.51,19.37l.14.15c.23.25.7.75.71.77l.13.14c24.58,26.99,38.97,62.91,54.2,100.94,17.09,42.65,34.76,86.76,68.1,120.04l.04.04c9.28,9.34,19.75,17.69,31.13,24.82,10.2,6.4,21.05,11.62,32.25,15.52l.29.1c16.3,6.07,34.61,9.05,55.98,9.11h.64c4,0,8.05-.13,12.03-.39l.46-.03h.46c2.16,0,4.3-.19,6.38-.57l.47-.09.47-.05c17.81-2.04,34.4-6.96,49.32-14.62,13.17-6.76,24.73-15.28,34.37-25.34l24.71-25.78v58.71h77.58V224.41h-77.58v59.35l-24.74-25.99c-9.74-10.23-21.41-18.91-34.7-25.8-20.13-10.43-43.43-15.72-69.24-15.72h-.05c-32.95,0-62.92,8.38-89.08,24.9-1.8,1.14-3.57,2.3-5.25,3.45l-.1.07c-18.8,12.61-32.27,25.94-45.05,44.55l-.07.1c-3.13,4.47-6.1,9.14-8.84,13.87l-10.68,18.44-13.07-16.83c-1.7-2.19-3.2-4.18-4.65-6.1-4.48-5.93-8.71-11.53-18.02-21.98l-.94-1.05c-.13-.14-.25-.27-.37-.39l-.37-.41c-.25-.28-.5-.56-.76-.85l-.32-.35c-16.33-17.28-35.44-30.95-56.8-40.64l-.1-.05c-12.7-5.89-25.86-10.13-40.21-12.97h-.07c-13.54-2.77-27.88-4.16-42.62-4.16h-3.22ZM1064.73,626.47c-30.61,0-58.7-6.55-83.49-19.46-5.16-2.69-10.14-5.6-14.91-8.73v20.04h-134.92V0h135.94v214.78c4.69-2.98,9.58-5.76,14.64-8.33,24.77-12.53,52.6-18.88,82.74-18.88,39,0,74.49,9.86,105.49,29.31,30.82,19.33,55.42,45.87,73.12,78.87,17.63,32.87,26.58,70.51,26.58,111.88s-8.7,77.9-26.58,111.18c-17.69,32.94-42.3,59.38-73.15,78.58-30.98,19.3-66.46,29.08-105.44,29.08ZM937.64,534.23l24.4,23.97c9.27,9.1,20.19,16.96,32.46,23.35,20.65,10.76,44.28,16.22,70.23,16.22,33.54,0,63.91-8.32,90.28-24.74,26.54-16.52,47.75-39.33,63.04-67.8,15.59-29,23.17-60.93,23.17-97.6s-7.8-69.66-23.17-98.32c-15.31-28.56-36.53-51.48-63.08-68.13-26.36-16.54-56.72-24.92-90.24-24.92-25.59,0-49.07,5.31-69.77,15.79-12.06,6.11-22.86,13.64-32.09,22.37l-24.2,22.89V28.7h-78.55v560.92h77.53v-55.38ZM1046.38,527.79c-22.08,0-42.07-5.2-59.4-15.46-17.42-10.32-31.11-24.86-40.69-43.23-9.4-18.03-14.16-38.92-14.16-62.09s4.73-43.99,14.05-61.96c9.49-18.29,23.14-32.84,40.55-43.23,17.34-10.34,37.33-15.58,59.44-15.58s42.08,5.25,59.29,15.61c17.2,10.36,30.87,24.87,40.63,43.15,9.65,18.06,14.54,38.93,14.54,62.01s-4.89,43.95-14.54,62.01c-9.76,18.27-23.38,32.78-40.5,43.13-17.14,10.37-37.06,15.63-59.21,15.63ZM1046.17,314.94c-17.1,0-31.73,3.77-44.74,11.53-12.95,7.72-22.69,18.12-29.78,31.8-7.18,13.84-10.82,30.24-10.82,48.74s3.67,34.93,10.91,48.82c7.16,13.74,16.93,24.14,29.86,31.8,13.02,7.71,27.67,11.45,44.78,11.45s31.58-3.76,44.36-11.49c12.82-7.75,22.65-18.25,30.04-32.1,7.4-13.86,11.15-30.17,11.15-48.49s-3.75-34.63-11.15-48.49c-7.39-13.83-17.24-24.33-30.12-32.08-12.85-7.74-27.4-11.5-44.49-11.5ZM584.04,527.79h-.06v-28.7h.05c25.92,0,46.13-8.27,61.78-25.24,15.97-17.32,23.73-39.18,23.73-66.83,0-18.5-3.64-34.9-10.82-48.74-7.11-13.7-16.78-24.12-29.55-31.84-12.59-7.61-27.71-11.48-44.93-11.49h-.04c-16.8,0-31.71,3.87-44.31,11.49-12.84,7.77-22.71,18.28-30.16,32.13-7.46,13.85-11.23,30.15-11.23,48.45s3.75,34.63,11.15,48.49c7.39,13.84,17.24,24.33,30.11,32.08,10.75,6.47,23.1,10.25,36.72,11.23,1.66.01,3.3.09,4.89.24.97.02,1.82.03,2.62.03v28.7c-1.19,0-2.42-.02-3.86-.06h-.54s-.54-.07-.54-.07c-.98-.1-2.02-.15-3.1-.15h-.48l-.48-.03c-18.39-1.24-35.22-6.39-50.03-15.31-17.19-10.35-30.86-24.86-40.63-43.15-9.65-18.06-14.54-38.93-14.54-62.01s4.93-43.99,14.66-62.05c9.81-18.24,23.47-32.74,40.58-43.09,17.15-10.37,37.05-15.63,59.16-15.63h.05c22.53.01,42.64,5.27,59.77,15.63,17.18,10.39,30.7,24.92,40.17,43.18,9.32,17.97,14.05,38.81,14.05,61.96,0,34.7-10.54,63.73-31.32,86.28-21.08,22.88-48.96,34.48-82.87,34.49ZM1780.77,379.52l4.85-18.1c2.25-8.39,5.24-16.36,8.88-23.69,9.69-19.47,23.7-34.79,41.65-45.56,17.56-10.54,39.22-16.11,62.63-16.11s42.46,4.87,58.46,14.49c16.22,9.74,28.8,23.93,37.39,42.16,4.09,8.66,7.32,18.42,9.58,29l3.71,17.31-227.17.5ZM1898.79,304.75c-18.21,0-34.76,4.16-47.87,12.02-13.36,8.02-23.41,19.06-30.73,33.75-.04.07-.07.15-.11.22l150.96-.33c-.74-1.88-1.52-3.71-2.35-5.46-6.22-13.2-14.8-22.95-26.22-29.81-11.47-6.89-26.17-10.39-43.68-10.39Z"/>
    </g>
  </g>
</svg>