<?xml version="1.0" encoding="UTF-8"?>
<svg id="base" xmlns="http://www.w3.org/2000/svg" version="1.1" viewBox="0 0 2000 1067.19">
  <!-- Generator: Adobe Illustrator 30.1.0, SVG Export Plug-In . SVG Version: 2.1.1 Build 136)  -->
  <defs>
    <style>
      .st0 {
        fill: #ff0069;
      }
    </style>
  </defs>
  <path class="st0" d="M549.46,1067.19c-103.38,0-196.84-23.29-280.29-69.87-83.45-46.58-149.17-110.37-197.18-191.36C24.01,724.97,0,634.36,0,534.14s24.09-192.68,72.26-273.14c48.17-80.46,114.07-144.07,197.71-190.83C349.4,25.77,437.88,2.45,535.44.21c2.44-.14,4.9-.21,7.38-.21s4.98.01,7.44.03h.93c40.94,0,80.3,3.84,118.07,11.51,39.3,7.78,76.73,19.7,112.83,36.42,60.32,27.38,113.47,65.44,159.47,114.19,1.16,1.3,2.33,2.57,3.44,3.82,1.4,1.49,2.78,3,4.13,4.51l-.03.04c33.08,37.05,42.61,51.78,60.53,74.86,7.76-13.39,15.99-26.28,24.67-38.69,35.52-51.75,73.66-89.77,126.91-125.52,4.84-3.3,9.77-6.53,14.74-9.68C1250.24,24.55,1333.96,1.09,1427.12,1.09h.13c73.39,0,139.03,15,196.92,44.99,38.27,19.85,71.59,44.63,99.91,74.37V22.26h275.92v1022.7h-275.92v-96.99c-27.98,29.2-61.01,53.59-99.12,73.17-42.9,22.03-89.83,35.97-140.81,41.82-7.54,1.37-15.32,2.09-23.26,2.09-11.04.72-22.26,1.09-33.64,1.09h-1.77c-56.19-.16-109.34-7.78-158.25-25.98-31.87-11.08-62.3-25.72-91.29-43.9-32.08-20.12-61.25-43.37-87.45-69.74-169.63-169.34-189.27-432.81-318.77-575.05l-.05.05c-.74-.84-1.48-1.68-2.22-2.52-15.59-16.78-32.77-31.83-51.96-44.77-13.09-8.52-26.94-15.81-41.37-21.8-36.84-15.34-77.81-23.01-122.94-23.03h-.13c-51.82.02-97.85,11.66-138.03,34.94-40.23,23.29-71.73,55.23-94.49,95.81-22.76,40.58-34.14,88.22-34.14,142.92s11.38,101.11,34.14,142.39,54.34,73.67,94.75,97.13c40.36,23.45,86.28,35.18,137.76,35.2h.13c.87,0,1.77,0,2.65-.01,28.66-.21,56.53-3.78,81.76-10.19,15.78-4.06,31.17-9.5,46-16.26,29.93-13.96,58.39-33.46,86.94-64.46,1.27-1.44,2.54-2.89,3.78-4.36l.08.09c7.28-8.19,14.61-17.15,21.94-26.97,5.24,12.97,10.56,25.99,16.04,38.99,29.75,70.56,63.84,140.25,108.33,204.09-4.49,3.82-9.03,7.57-13.63,11.26-27.53,24.87-68.66,54.01-123.68,79.04-2.73,1.28-5.45,2.51-8.15,3.69-67.94,29.64-142.5,44.46-223.65,44.46h-.13M1478.99,809.93h.13c77.58-.03,140.17-25.88,187.79-77.55,47.64-51.7,71.46-117.96,71.46-198.77,0-54.35-10.77-102.25-32.29-143.72s-51.69-73.93-90.52-97.4c-38.77-23.45-84.09-35.19-135.91-35.2h-.13c-50.76.02-95.55,11.75-134.32,35.2-38.83,23.47-69.45,56.02-91.84,97.66-22.42,41.64-33.61,89.46-33.61,143.45s11.12,101.81,33.35,143.45,52.83,74.2,91.84,97.66c33.48,20.16,71.22,31.66,113.17,34.5,4,0,7.94.19,11.83.57,3.02.09,6.01.13,9.05.13"/>
</svg>