<?xml version="1.0" encoding="UTF-8"?>
<svg id="base" xmlns="http://www.w3.org/2000/svg" version="1.1" viewBox="0 0 2074.9 1142.19">
  <!-- Generator: Adobe Illustrator 30.1.0, SVG Export Plug-In . SVG Version: 2.1.1 Build 136)  -->
  <defs>
    <style>
      .st0 {
        fill: #fff;
      }

      .st1 {
        fill: #ff0069;
      }
    </style>
  </defs>
  <path class="st0" d="M586.86,1104.69c-103.38,0-196.84-23.29-280.29-69.87-83.45-46.58-149.17-110.37-197.18-191.36-47.98-80.99-71.99-171.6-71.99-271.82s24.09-192.68,72.26-273.14c48.17-80.46,114.07-144.07,197.71-190.83,79.43-44.4,167.91-67.72,265.47-69.96,2.44-.14,4.9-.21,7.38-.21s4.98,0,7.44.03h.93c40.94,0,80.3,3.84,118.07,11.51,39.3,7.78,76.73,19.7,112.83,36.42,60.32,27.38,113.47,65.44,159.47,114.19,1.16,1.3,2.33,2.57,3.44,3.82,1.4,1.49,2.78,3,4.13,4.51l-.03.04c33.08,37.05,42.61,51.78,60.53,74.86,7.76-13.39,15.99-26.28,24.67-38.69,35.52-51.75,73.66-89.77,126.91-125.52,4.84-3.3,9.77-6.53,14.74-9.68,74.29-46.94,158.01-70.4,251.17-70.4h.13c73.39,0,139.03,15,196.92,44.99,38.27,19.85,71.59,44.63,99.91,74.37V59.76h275.92v1022.7h-275.92v-96.99c-27.98,29.2-61.01,53.59-99.12,73.17-42.9,22.03-89.83,35.97-140.81,41.82-7.54,1.37-15.32,2.09-23.26,2.09-11.04.72-22.26,1.09-33.64,1.09h-1.77c-56.19-.16-109.34-7.78-158.25-25.98-31.87-11.08-62.3-25.72-91.29-43.9-32.08-20.12-61.25-43.37-87.45-69.74-169.63-169.34-189.27-432.81-318.77-575.05,0,0-1.53-1.63-2.27-2.47-15.59-16.78-32.77-31.83-51.96-44.77-13.09-8.52-26.94-15.81-41.37-21.8-36.84-15.34-77.81-23.01-122.94-23.03h-.13c-51.82.02-97.85,11.66-138.03,34.94-40.23,23.29-71.73,55.23-94.49,95.81-22.76,40.58-34.14,88.22-34.14,142.92s11.38,101.11,34.14,142.39,54.34,73.67,94.75,97.13c40.36,23.45,86.28,35.18,137.76,35.2h.13c.87,0,1.77,0,2.65-.01,28.66-.21,56.53-3.78,81.76-10.19,15.78-4.06,31.17-9.5,46-16.26,29.93-13.96,58.39-33.46,86.94-64.46,1.27-1.44,2.54-2.89,3.78-4.36,0,0,14.69-17.06,22.02-26.88,5.24,12.97,10.56,25.99,16.04,38.99,29.75,70.56,63.84,140.25,108.33,204.09-4.49,3.82-9.03,7.57-13.63,11.26-27.53,24.87-68.66,54.01-123.68,79.04-2.73,1.28-5.45,2.51-8.15,3.69-67.94,29.64-142.5,44.46-223.65,44.46h-.13M1516.39,847.43h.13c77.58-.03,140.17-25.88,187.79-77.55,47.64-51.7,71.46-117.96,71.46-198.77,0-54.35-10.77-102.25-32.29-143.72s-51.69-73.93-90.52-97.4c-38.77-23.45-84.09-35.19-135.91-35.2h-.13c-50.76.02-95.55,11.75-134.32,35.2-38.83,23.47-69.45,56.02-91.84,97.66-22.42,41.64-33.61,89.46-33.61,143.45s11.12,101.81,33.35,143.45,52.83,74.2,91.84,97.66c33.48,20.16,71.22,31.66,113.17,34.5,4,0,7.94.19,11.83.57,3.02.09,6.01.13,9.05.13"/>
  <path class="st1" d="M586.86,1142.19c-109.4,0-209.85-25.11-298.57-74.62-88.9-49.62-159.95-118.59-211.16-204.98C25.88,776.08-.1,678.19-.1,571.64s26.1-206.41,77.58-292.4c51.36-85.78,122.55-154.52,211.59-204.3C373.36,27.82,468.34,2.69,571.38.23c5.42-.29,10.99-.25,16.43-.2h.79c43.2,0,85.39,4.12,125.42,12.24,43.08,8.53,82.71,21.33,121.14,39.12,64.43,29.27,121.99,70.49,171.09,122.53l.71.77c.48.54.97,1.08,1.45,1.61.57.63,1.14,1.25,1.69,1.88,1.44,1.54,2.92,3.16,4.41,4.82l20.4,22.82-.29.39c3.54,4.2,6.74,8.08,9.69,11.72,37.35-53.25,78.68-93.61,133.29-130.3,4.98-3.39,10.26-6.86,15.69-10.3C1273.34,26.73,1364.59,1.09,1464.52,1.09h.13c79.1,0,151.16,16.55,214.17,49.19,15.77,8.18,30.84,17.18,45.16,26.97V22.26h350.92v1097.7h-350.92v-54.26c-14.11,9.54-28.95,18.31-44.48,26.29-46.41,23.83-97.71,39.17-152.5,45.58-9.02,1.57-18.23,2.39-27.42,2.46-11.53.73-23.27,1.09-34.92,1.09h-1.88c-64.3-.18-120.19-9.41-170.83-28.19-34.23-11.93-67.37-27.89-98.52-47.42-34.37-21.56-66.01-46.79-94.07-75.02-43.87-43.81-82.06-97.22-116.74-163.28-30.01-57.16-53.7-116.29-76.61-173.46-36.93-92.19-71.82-179.27-126.43-239.36-.58-.62-1.6-1.71-2.45-2.67-14.16-15.21-28.87-27.89-44.94-38.76-11.03-7.16-22.81-13.35-35.03-18.43-32.1-13.37-68.62-20.15-108.58-20.16h-.11c-44.91.02-85.03,10.07-119.23,29.89-34.64,20.05-60.99,46.78-80.58,81.71-19.47,34.72-29.35,76.63-29.35,124.58s9.64,88.31,29.48,124.28c19.61,35.56,46.02,62.65,80.74,82.81,34.87,20.26,73.77,30.11,118.95,30.13h.11c.73,0,1.49,0,2.23,0h.14c25.05-.19,50.19-3.3,72.72-9.02,13.54-3.49,26.87-8.19,39.6-13.99,28.23-13.19,52.01-30.84,74.8-55.53,1-1.13,1.99-2.27,2.97-3.43l.24-.28c3.85-4.48,15.03-17.67,20.39-24.84l39.86-53.4,24.96,61.79c6.23,15.43,11.11,27.29,15.83,38.47,34.38,81.54,67.6,144.21,104.54,197.22l19.47,27.94-25.94,22.07c-4.46,3.79-9.03,7.58-13.62,11.27-25.23,22.66-68.45,55.45-132.26,84.51-2.88,1.35-5.86,2.7-8.86,4.01-72.41,31.59-152.71,47.6-238.68,47.6l-.12.03ZM580.22,75c-1.76,0-3.52.05-5.23.15l-1.29.05c-90.92,2.09-174.37,24.03-248.03,65.2-77.45,43.3-139.3,102.97-183.83,177.36-44.41,74.19-66.93,159.6-66.93,253.88s22.46,177.94,66.75,252.71c44.37,74.84,106,134.64,183.19,177.73,77.4,43.2,165.56,65.11,262,65.11v-.03h.13c75.59,0,145.79-13.91,208.66-41.33,2.43-1.06,4.87-2.17,7.22-3.27l.39-.18c47.22-21.48,80.96-44.92,103.07-63.23-29.98-47.03-57.84-100.76-85.99-165.77-25.89,25.38-53.43,44.48-85.5,59.44l-.3.14c-16.79,7.65-34.35,13.86-52.21,18.46l-.11.03c-28.7,7.29-59.2,11.11-90.66,11.34-.99,0-2.01.01-2.99.01h-.13c-57.96-.02-110.64-13.57-156.6-40.28-46.16-26.8-82.75-64.3-108.75-111.45-26.11-47.35-38.8-99.85-38.8-160.5s13.1-115.2,38.93-161.26c25.99-46.34,62.46-83.32,108.41-109.92,45.75-26.51,98.51-39.96,156.8-39.99h.14c49.91.02,96.12,8.74,137.35,25.91,16.51,6.85,32.47,15.26,47.41,24.99l.51.34c20.79,14.02,40.46,30.95,58.47,50.34l.67.74c.5.56,1.43,1.54,1.47,1.59l.39.42c63.84,70.12,101.21,163.4,140.77,262.16,44.36,110.72,90.23,225.21,176.76,311.6l.11.11c24.04,24.2,51.22,45.87,80.77,64.4,26.49,16.61,54.64,30.15,83.68,40.25l.76.28c42.3,15.74,89.82,23.47,145.28,23.62h1.66c10.42,0,20.92-.34,31.2-1.01l1.22-.08h1.22c5.56,0,11.13-.5,16.56-1.49l1.21-.22,1.22-.14c46.23-5.3,89.28-18.06,127.95-37.92,34.2-17.57,64.2-39.69,89.17-65.76l64.58-67.39v152.83h200.92V97.26h-200.92v154.45l-64.66-67.9c-25.28-26.55-55.57-49.07-90.02-66.94-52.23-27.06-112.67-40.78-179.65-40.78h-.13c-85.53,0-163.3,21.74-231.14,64.6-4.72,2.99-9.33,6.02-13.65,8.96l-.22.15c-48.81,32.77-83.77,67.34-116.89,115.61l-.19.27c-8.1,11.57-15.82,23.69-22.95,36l-27.92,48.17-34.15-43.98c-4.41-5.68-8.31-10.85-12.08-15.84-11.62-15.4-22.6-29.94-46.8-57.04l-3-3.36c-.15-.16-.31-.33-.46-.49l-.71-.78c-.51-.57-1.03-1.15-1.56-1.73-.48-.53-.96-1.06-1.45-1.6-42.35-44.8-91.93-80.27-147.36-105.43l-.26-.12c-33-15.28-67.13-26.29-104.35-33.66l-.18-.04c-35.16-7.14-72.37-10.76-110.61-10.76h-1.24c-2.36-.02-4.76-.03-7.13-.03ZM1516.54,884.93l-.14-.02c-3.53,0-6.85-.05-10.17-.15l-1.27-.04-1.26-.12c-2.67-.26-5.42-.39-8.18-.39h-1.27l-1.26-.09c-47.78-3.23-91.51-16.62-129.98-39.79-44.67-26.87-80.2-64.59-105.58-112.12-25.06-46.94-37.77-101.15-37.77-161.11s12.82-114.29,38.09-161.23c25.49-47.41,60.98-85.09,105.46-111.97,44.51-26.92,96.22-40.58,153.7-40.61h.15c58.53.01,110.78,13.68,155.32,40.61,44.63,26.97,79.76,64.73,104.4,112.21,24.22,46.68,36.5,100.85,36.5,160.99,0,90.15-27.38,165.58-81.38,224.18-54.79,59.45-127.24,89.61-215.35,89.64ZM1516.39,809.93h.13c67.23-.03,119.64-21.44,160.21-65.46,41.41-44.94,61.54-101.64,61.54-173.36,0-48-9.45-90.55-28.08-126.45-18.45-35.55-43.52-62.56-76.63-82.58-32.67-19.76-71.87-29.79-116.52-29.79h-.12c-43.6.02-82.26,10.04-114.91,29.79-33.31,20.13-58.89,47.39-78.22,83.33-19.34,35.92-29.14,78.2-29.14,125.69s9.73,89.83,28.93,125.79c19.17,35.9,44.71,63.11,78.08,83.18,27.89,16.79,59.92,26.59,95.24,29.14,4.25.04,8.5.24,12.68.61,2.2.05,4.43.08,6.8.08v.02Z"/>
</svg>