<?xml version="1.0" encoding="UTF-8" standalone="no"?>
<svg
   height="24px"
   viewBox="0 -960 960 960"
   width="24px"
   fill="#FFFFFF"
   version="1.1"
   id="svg1"
   sodipodi:docname="volume_up_24dp_FFFFFF_FILL0_wght200_GRAD0_opsz24.svg"
   inkscape:version="1.4 (e7c3feb100, 2024-10-09)"
   xmlns:inkscape="http://www.inkscape.org/namespaces/inkscape"
   xmlns:sodipodi="http://sodipodi.sourceforge.net/DTD/sodipodi-0.dtd"
   xmlns="http://www.w3.org/2000/svg"
   xmlns:svg="http://www.w3.org/2000/svg">
  <defs
     id="defs1" />
  <sodipodi:namedview
     id="namedview1"
     pagecolor="#505050"
     bordercolor="#ffffff"
     borderopacity="1"
     inkscape:showpageshadow="0"
     inkscape:pageopacity="0"
     inkscape:pagecheckerboard="1"
     inkscape:deskcolor="#505050"
     inkscape:zoom="22.067624"
     inkscape:cx="12.235119"
     inkscape:cy="12.620298"
     inkscape:window-width="1920"
     inkscape:window-height="958"
     inkscape:window-x="0"
     inkscape:window-y="27"
     inkscape:window-maximized="1"
     inkscape:current-layer="svg1" />
  <path
     d="M563.08-180.23v-42q83.07-29.08 133.84-100 50.77-70.92 50.77-158.77 0-87.85-50.77-158.77-50.77-70.92-133.84-100v-42q99.38 31.85 162 114.35 62.61 82.5 62.61 186.42 0 103.92-62.61 186.42-62.62 82.5-162 114.35ZM172.31-400v-160h136.92l143.08-143.08v446.16L309.23-400H172.31Zm390.77 52.31v-266.62q33.92 22 51.57 57.93 17.66 35.92 17.66 76.38 0 40.23-18.04 75.27t-51.19 57.04ZM412.31-606l-86 86h-114v80h114l86 86v-252Zm-100 126Z"
     id="path1" />
  <path
     style="fill:#ffffff;stroke-width:0.00320427"
     d="M 9.212283,14.034713 8.1552373,12.977303 H 6.7371647 5.3190921 V 12 11.022697 H 6.7368059 8.1545197 L 9.2201168,9.9574557 10.285714,8.8922145 v 3.0999545 c 0,1.704974 -0.0037,3.099954 -0.0082,3.099954 -0.0045,0 -0.4838638,-0.475835 -1.065239,-1.05741 z"
     id="path2"
     transform="matrix(40,0,0,40,0,-960)" />
</svg>
